<svg width="28" height="17" viewBox="0 0 28 17" fill="none" xmlns="http://www.w3.org/2000/svg">
<path d="M12.3811 15.8613L11.3139 16.7256C10.862 17.0915 10.1313 17.0915 9.68426 16.7256L0.338913 9.16178C-0.112971 8.79586 -0.112971 8.20415 0.338913 7.84211L9.68426 0.274445C10.1361 -0.0914816 10.8669 -0.0914816 11.3139 0.274445L12.3811 1.13865C12.8378 1.50847 12.8282 2.11186 12.3619 2.47389L6.56915 6.94287H26.7693C27.4087 6.94287 28 7.98225 28 8.5C28 9.01775 27.4087 9.99485 26.7693 9.99485L13.4772 10.0571H6.56915L12.3619 14.5261C12.833 14.8881 12.8426 15.4915 12.3811 15.8613Z" fill="#454545"/>
</svg>
