<svg width="20" height="20" viewBox="0 0 20 20" fill="none" xmlns="http://www.w3.org/2000/svg">
<path d="M19.993 5.94999C19.9914 5.8778 19.9817 5.80601 19.964 5.73599C19.957 5.71099 19.943 5.68699 19.934 5.66199C19.913 5.60499 19.894 5.54899 19.864 5.49699C19.848 5.46999 19.826 5.44799 19.807 5.42199C19.775 5.37699 19.744 5.33099 19.705 5.29199C19.682 5.26999 19.652 5.25199 19.627 5.23099C19.588 5.19899 19.552 5.16399 19.507 5.13699C19.503 5.13399 19.498 5.13399 19.493 5.13099L19.485 5.12499L10.506 0.134993C10.3576 0.0527192 10.1908 0.00946804 10.0211 0.00929314C9.85147 0.00911823 9.68454 0.0520254 9.536 0.133993L0.515 5.12399C0.512 5.12699 0.509 5.13099 0.504 5.13399L0.494 5.13799C0.459 5.15799 0.433 5.18699 0.4 5.21099C0.364 5.23799 0.326 5.26199 0.294 5.29299C0.264 5.32399 0.241 5.35999 0.215 5.39499C0.188 5.42999 0.158 5.46099 0.136 5.49899C0.11 5.54199 0.0959999 5.59099 0.0769999 5.63799C0.0629999 5.67099 0.045 5.70199 0.036 5.73799C0.0187295 5.80673 0.00900528 5.87715 0.00699997 5.94799C0.00599997 5.96499 0 5.97999 0 5.99799V14C0 14.363 0.197 14.698 0.515 14.874L9.493 19.861L9.494 19.862L9.496 19.863L9.516 19.874C9.559 19.898 9.606 19.911 9.651 19.928C9.683 19.941 9.714 19.958 9.748 19.967C9.91395 20.0098 10.088 20.0098 10.254 19.967C10.287 19.958 10.318 19.941 10.351 19.928C10.396 19.911 10.443 19.899 10.486 19.874L10.506 19.863L10.508 19.862L10.509 19.861L19.487 14.874C19.803 14.698 20 14.363 20 14V5.99799C20 5.98099 19.994 5.96699 19.993 5.94999ZM9.972 9.87199L3.058 6.00499L5.82 4.47699L12.654 8.38199L9.972 9.87199ZM10.02 2.15299L16.941 5.99999L14.697 7.24699L7.867 3.34399L10.02 2.15299ZM11 17.301L11.002 11.622L14 9.94399V13L16 12V8.82499L18 7.70599V13.411L11 17.301Z" fill="#246E31"/>
</svg>
