<svg width="12" height="13" viewBox="0 0 12 13" fill="none" xmlns="http://www.w3.org/2000/svg">
<path d="M11.0156 2.34375H5.85938H0.703125C0.516645 2.34375 0.337802 2.41783 0.205941 2.54969C0.0740791 2.68155 0 2.86039 0 3.04688C0 3.23336 0.0740791 3.4122 0.205941 3.54406C0.337802 3.67592 0.516645 3.75 0.703125 3.75H0.9375V11.7188C0.93785 12.0294 1.06143 12.3273 1.28112 12.547C1.50081 12.7667 1.79868 12.8903 2.10938 12.8906H9.60938C9.92007 12.8903 10.2179 12.7667 10.4376 12.547C10.6573 12.3273 10.7809 12.0294 10.7812 11.7188V3.75H11.0156C11.2021 3.75 11.3809 3.67592 11.5128 3.54406C11.6447 3.4122 11.7188 3.23336 11.7188 3.04688C11.7188 2.86039 11.6447 2.68155 11.5128 2.54969C11.3809 2.41783 11.2021 2.34375 11.0156 2.34375ZM9.375 11.4844H2.34375V3.75H9.375V11.4844ZM2.81273 0.703125C2.81273 0.516645 2.88681 0.337802 3.01867 0.205941C3.15053 0.0740791 3.32937 0 3.51585 0H8.20335C8.38983 0 8.56868 0.0740791 8.70054 0.205941C8.8324 0.337802 8.90648 0.516645 8.90648 0.703125C8.90648 0.889605 8.8324 1.06845 8.70054 1.20031C8.56868 1.33217 8.38983 1.40625 8.20335 1.40625H3.51585C3.32937 1.40625 3.15053 1.33217 3.01867 1.20031C2.88681 1.06845 2.81273 0.889605 2.81273 0.703125Z" fill="#76BA99"/>
</svg>
